<svg xmlns="http://www.w3.org/2000/svg" height="24" viewBox="0 0 24 24" width="24" focusable="false" aria-hidden="true" style="fill:white; pointer-events: none; display: inherit; width: 100%; height: 100%;"><path d="M9 2a5 5 0 100 10A5 5 0 009 2Zm0 2a3 3 0 110 6.001A3 3 0 019 4Zm9 5a3 3 0 100 6 3 3 0 000-6Zm0 2a1 1 0 110 2 1 1 0 010-2Zm-9 2a8 8 0 00-8 8 1 1 0 102 0 5.998 5.998 0 019.776-4.66 7.02 7.02 0 011.355-1.173 4.995 4.995 0 01-.455-.657A8 8 0 009 13Zm9 3a5 5 0 00-5 5 1 1 0 002 0 3.003 3.003 0 013-3 3.003 3.003 0 013 3 1 1 0 002 0 5 5 0 00-5-5Z"></path></svg>